# xmcd
#
# Track frame offsets:
# 150
# 12507
# 29900
# 43833
# 58020
# 72201
# 88329
# 102157
# 113896
# 128522
# 140481
# 150707
# 164306
# 180902
#
# Disc length: 2574 seconds
#
#
# Revision: 0
# Processed by: cddbd v1.5.1PL0 Copyright (c) Steve Scherf et al.
# Submitted via: FreeRIP 2.942 
#
DISCID=c00a0c0e
DTITLE=Volker Rosin - Super-Murmli
DYEAR=1900
DGENRE=Kids
TTITLE0=Super-Murmli
TTITLE1=Das Lied über mich
TTITLE2=Theo Theo
TTITLE3=Berge Mambo
TTITLE4=Hoppelhase Hans
TTITLE5=Wir fliegen um die Welt
TTITLE6=Max, der Discobär
TTITLE7=Oakie Doakie
TTITLE8=Hexentanz
TTITLE9=Kommt, lasst uns twisten gehen
TTITLE10=Schneeflocken hüpfen
TTITLE11=Das singende Känguru
TTITLE12=Volkers Techno Hitmix
TTITLE13=Super-Murmli (Karaoke Version)
EXTD=
EXTT0=
EXTT1=
EXTT2=
EXTT3=
EXTT4=
EXTT5=
EXTT6=
EXTT7=
EXTT8=
EXTT9=
EXTT10=
EXTT11=
EXTT12=
EXTT13=
PLAYORDER=
